# xmcd CD database file
#
# Track frame offsets:
#	150
#	15432
#	32383
#	53555
#	77857
#	99851
#	124773
#	141344
#
# Disc length: 2129 seconds
#
# Revision: 0
# Processed by: cddbd v1.4PL0 Copyright (c) Steve Scherf et al.
# Submitted via: CDex 1.50Beta7
#
DISCID=56084f08
DTITLE=Lito Vitale - La Musica de Temaiken
DYEAR=1900
DGENRE=New Age
TTITLE0=Temaiken
TTITLE1=Patagonia. Hielo y Montañas
TTITLE2=Patagonia. Mesetas y Acantilados
TTITLE3=Nido de Condor
TTITLE4=La Cueva de las Manos
TTITLE5=Planeta de Agua
TTITLE6=El Esplendor de la Naturaleza
TTITLE7=El Agua Cuenta su Historia
EXTD=
EXTT0=
EXTT1=
EXTT2=
EXTT3=
EXTT4=
EXTT5=
EXTT6=
EXTT7=
PLAYORDER=
